<svg width="1523" height="1394" viewBox="0 0 1523 1394" fill="none" xmlns="http://www.w3.org/2000/svg">
<path d="M618.742 112.286L762.742 30V158L618.742 240.285V112.286Z" fill="#3E3E3E"/>
<path d="M930.742 224.281L906.742 240.281V112.281L930.742 96.2812V224.281Z" fill="#3E3E3E"/>
<path d="M366.664 256.327L506.744 176.281V304.281L478.728 320.29L366.664 256.327Z" fill="#3E3E3E"/>
<path d="M482.742 480.281L506.742 464.281V412.07L594.742 463.018V416.281L618.742 400.281L762.742 482.681V208.281L506.742 356.491V336.281L482.742 352.281V480.281Z" fill="#3E3E3E"/>
<path d="M1042.74 352.281L1210.74 256.281V700.216C1210.74 771.987 1172.28 838.256 1109.97 873.864L762.742 1072.28V512.281L930.742 416.281V544.281L1042.74 480.281V352.281Z" fill="#3E3E3E"/>
<path d="M186.916 1231.53L217.789 1193.94C194.634 1170.11 159.063 1155 125.17 1155C54.0277 1155 0 1206.02 0 1273.83C0 1341.97 53.021 1394 123.156 1394C157.385 1394 193.292 1377.55 218.124 1352.04L186.916 1318.14C170.137 1334.92 146.982 1345.66 125.841 1345.66C85.5718 1345.66 54.3633 1314.11 54.3633 1273.16C54.3633 1232.21 85.5718 1200.99 125.841 1200.99C147.653 1200.99 170.808 1213.07 186.916 1231.53Z" fill="white"/>
<path d="M266.56 1156.68V1391.65H319.581V1156.68H266.56Z" fill="white"/>
<path d="M365.379 1156.68V1201.66H436.857V1391.65H489.878V1201.66H561.691V1156.68H365.379Z" fill="white"/>
<path d="M755.769 1391.65H812.481L712.144 1156.68H657.445L555.43 1391.65H610.129L628.586 1346H737.312L755.769 1391.65ZM646.036 1303.37L683.285 1212.06L720.198 1303.37H646.036Z" fill="white"/>
<path d="M953.352 1156.68H853.686V1391.65H951.339C1025.5 1391.65 1076.84 1343.31 1076.84 1274.16C1076.84 1204.68 1026.17 1156.68 953.352 1156.68ZM954.695 1347.01H906.707V1201.32H952.346C992.615 1201.32 1022.82 1231.2 1022.82 1274.5C1022.82 1317.47 993.957 1347.01 954.695 1347.01Z" fill="white"/>
<path d="M1128.37 1156.68V1391.65H1310.93V1347.68H1181.39V1295.65H1294.48V1251.67H1181.39V1200.65H1307.24V1156.68H1128.37Z" fill="white"/>
<path d="M1369.31 1156.68V1391.65H1523V1345.33H1422.33V1156.68H1369.31Z" fill="white"/>
<path d="M762.742 157.719L906.742 240.004V112.004L762.742 29.7188V157.719Z" fill="white"/>
<path d="M618.742 240L594.742 224V95.9999L618.742 112V240Z" fill="white"/>
<path d="M482.742 352L314.742 256V699.935C314.742 771.706 353.199 837.975 415.514 873.583L762.742 1072V511.999L594.742 416V543.999L482.742 480V352Z" fill="white"/>
<path d="M1018.74 464L1042.74 480V352L1018.74 336V356.21L762.742 208V482.4L906.742 400L930.742 416V462.736L1018.74 411.789V464Z" fill="white"/>
<path d="M1046.76 320.009L1018.74 304V176L1158.82 256.045L1046.76 320.009Z" fill="white"/>
<path d="M762.742 29.6L906.742 112L930.742 95.9999L762.742 0L594.742 95.9999L618.742 112L762.742 29.6Z" fill="#E3E3E3"/>
<path d="M594.742 224L618.742 240L762.742 157.719L906.742 240.004L930.742 224L1018.74 274.285V304L1046.76 320.009L1158.9 256L1018.74 176L1042.74 160L1210.74 256L1042.74 352L1018.74 336V356.21L762.742 208L506.742 356.21V336L482.742 352L314.742 256L482.742 160L506.742 176L366.582 256L478.728 320.009L506.744 304V274.284L594.742 224Z" fill="#E3E3E3"/>
<path d="M906.742 400L930.742 416L762.742 511.999L594.742 416L618.742 400L762.742 482.4L906.742 400Z" fill="#E3E3E3"/>
<path d="M506.742 411.789L594.742 462.736V543.999L482.742 480L506.742 464V411.789Z" fill="#E3E3E3"/>
<path d="M1042.74 480L930.742 543.999V462.736L1018.74 411.789V464L1042.74 480Z" fill="#E3E3E3"/>
</svg>
